<?xml version="1.0" encoding="UTF-8"?>
<svg id="Layer_1" data-name="Layer 1" xmlns="http://www.w3.org/2000/svg" viewBox="0 0 1626 190.5">
  <defs>
    <style>
      .cls-1 {
        fill: none;
        stroke: #fff;
        stroke-miterlimit: 10;
        stroke-width: 2px;
      }
    </style>
  </defs>
  <g>
    <g>
      <path class="cls-1" d="m846.47,233.52V22.67h43.45l19.39,100.88V22.67h40.75v210.85h-41.24l-21.11-105.55v105.55h-41.24Z"/>
      <path class="cls-1" d="m968.7,233.52V22.67h84.44v40.75h-41.48v40.99h39.76v39.76h-39.76v48.36h44.18v40.99h-87.14Z"/>
      <path class="cls-1" d="m816.28,34.58c-8.84-9.24-21.76-13.87-38.78-13.87h-149c-17.02,0-29.95,4.63-38.78,13.87-8.84,9.25-13.25,22.95-13.25,41.11v100.39c0,18.82,4.42,33.42,13.25,43.81,8.84,10.39,21.76,15.59,38.78,15.59h149c17.02,0,29.95-5.15,38.78-15.46,8.84-10.31,13.26-24.95,13.26-43.94v-100.39c0-18.16-4.42-31.87-13.26-41.11Zm-36.73,154.42c-.8,5.84-2.07,10.29-3.8,13.35-1.74,3.07-4.47,4.34-8.2,3.83l-147.63-20.13c-3.89-.53-6.36-2.43-7.4-5.71-1.04-3.28-1.15-7.92-.33-13.92l13.9-101.9c1.42-10.41,5.55-15.21,12.37-14.4l147.63,20.13c.08,0,.16,0,.24.02,3.73.51,6.01,2.27,6.84,5.27.83,3,.93,6.78.31,11.31l-13.93,102.15Z"/>
      <polygon class="cls-1" points="1157.17 128.1 1179.76 22.67 1136.8 22.67 1123.3 100.36 1110.04 22.67 1067.34 22.67 1089.92 128.1 1089.92 128.1 1067.34 233.52 1110.29 233.52 1123.79 155.84 1137.05 233.52 1179.76 233.52 1157.17 128.1 1157.17 128.1"/>
      <polygon class="cls-1" points="1278.14 128.1 1300.72 22.67 1257.77 22.67 1244.27 100.36 1231.01 22.67 1188.3 22.67 1210.89 128.1 1210.89 128.1 1188.3 233.52 1231.26 233.52 1244.76 155.84 1258.01 233.52 1300.72 233.52 1278.14 128.1 1278.14 128.1"/>
    </g>
    <rect class="cls-1" x="442.03" y="22.67" width="41.97" height="210.85"/>
    <polygon class="cls-1" points="528.27 233.52 499.8 128.1 523.37 22.67 566.16 22.67 542.59 128.1 571.07 233.52 528.27 233.52"/>
  </g>
  <g>
    <path class="cls-1" d="m-28.42,233.52V22.67H15.03l19.39,100.88V22.67h40.75v210.85h-41.24L12.82,127.98v105.55H-28.42Z"/>
    <path class="cls-1" d="m93.82,233.52V22.67h84.44v40.75h-41.48v40.99h39.76v39.76h-39.76v48.36h44.18v40.99h-87.14Z"/>
    <polygon class="cls-1" points="282.28 128.1 304.87 22.67 261.91 22.67 248.41 100.36 235.15 22.67 192.45 22.67 215.03 128.1 215.03 128.1 192.45 233.52 235.4 233.52 248.9 155.84 262.16 233.52 304.87 233.52 282.28 128.1 282.28 128.1"/>
    <polygon class="cls-1" points="403.25 128.1 425.83 22.67 382.88 22.67 369.38 100.36 356.12 22.67 313.41 22.67 336 128.1 336 128.1 313.41 233.52 356.37 233.52 369.87 155.84 383.13 233.52 425.83 233.52 403.25 128.1 403.25 128.1"/>
  </g>
  <g>
    <path class="cls-1" d="m1691.17,34.58c-8.84-9.24-21.76-13.87-38.78-13.87h-149c-17.02,0-29.95,4.63-38.78,13.87-8.84,9.25-13.25,22.95-13.25,41.11v100.39c0,18.82,4.42,33.42,13.25,43.81,8.84,10.39,21.76,15.59,38.78,15.59h149c17.02,0,29.95-5.15,38.78-15.46,8.84-10.31,13.26-24.95,13.26-43.94v-100.39c0-18.16-4.42-31.87-13.26-41.11Zm-36.73,154.42c-.8,5.84-2.07,10.29-3.8,13.35-1.74,3.07-4.47,4.34-8.2,3.83l-147.63-20.13c-3.89-.53-6.36-2.43-7.4-5.71-1.04-3.28-1.15-7.92-.33-13.92l13.9-101.9c1.42-10.41,5.55-15.21,12.37-14.4l147.63,20.13c.08,0,.16,0,.24.02,3.73.51,6.01,2.27,6.84,5.27.83,3,.93,6.78.31,11.31l-13.93,102.15Z"/>
    <rect class="cls-1" x="1316.92" y="22.67" width="41.97" height="210.85"/>
    <polygon class="cls-1" points="1403.16 233.52 1374.69 128.1 1398.26 22.67 1441.05 22.67 1417.48 128.1 1445.96 233.52 1403.16 233.52"/>
  </g>
</svg>