<?xml version="1.0" encoding="UTF-8"?>
<svg id="Layer_1" data-name="Layer 1" xmlns="http://www.w3.org/2000/svg" viewBox="0 0 544 184">
  <defs>
    <style>
      .cls-1 {
        fill: #c4ff00;
      }
    </style>
  </defs>
  <g>
    <path class="cls-1" d="m256.22,156.41V22.84h27.52l12.29,63.91V22.84h25.81v133.58h-26.12l-13.37-66.87v66.87h-26.12Z"/>
    <path class="cls-1" d="m333.66,156.41V22.84h53.49v25.81h-26.28v25.97h25.19v25.19h-25.19v30.63h27.99v25.97h-55.2Z"/>
    <path class="cls-1" d="m237.09,30.38c-5.6-5.86-13.79-8.79-24.57-8.79h-94.39c-10.78,0-18.97,2.93-24.57,8.79-5.6,5.86-8.4,14.54-8.4,26.05v63.6c0,11.92,2.8,21.18,8.4,27.76,5.6,6.58,13.79,9.87,24.57,9.87h94.39c10.78,0,18.97-3.27,24.57-9.8,5.6-6.53,8.4-15.81,8.4-27.83v-63.6c0-11.51-2.8-20.19-8.4-26.05Zm-23.27,97.83c-.5,3.7-1.31,6.52-2.41,8.46-1.1,1.94-2.83,2.75-5.2,2.43l-93.53-12.75c-2.47-.34-4.03-1.54-4.69-3.62-.66-2.08-.73-5.02-.21-8.82l8.8-64.56c.9-6.6,3.51-9.63,7.84-9.13l93.53,12.75c.05,0,.1,0,.15.01,2.36.32,3.81,1.44,4.33,3.34.52,1.9.59,4.29.2,7.17l-8.82,64.71Z"/>
    <polygon class="cls-1" points="453.06 89.62 467.36 22.84 440.15 22.84 431.6 72.05 423.2 22.84 396.14 22.84 410.45 89.62 410.45 89.62 396.14 156.41 423.36 156.41 431.91 107.2 440.31 156.41 467.36 156.41 453.06 89.62 453.06 89.62"/>
    <polygon class="cls-1" points="529.69 89.62 544 22.84 516.79 22.84 508.23 72.05 499.84 22.84 472.78 22.84 487.09 89.62 487.09 89.62 472.78 156.41 499.99 156.41 508.55 107.2 516.94 156.41 544 156.41 529.69 89.62 529.69 89.62"/>
  </g>
  <rect class="cls-1" y="22.84" width="26.59" height="133.58"/>
  <polygon class="cls-1" points="54.64 156.41 36.6 89.62 51.53 22.84 78.64 22.84 63.71 89.62 81.75 156.41 54.64 156.41"/>
</svg>