<?xml version="1.0" encoding="UTF-8"?>
<svg id="Layer_1" data-name="Layer 1" xmlns="http://www.w3.org/2000/svg" viewBox="0 0 32 32">
  <defs>
    <style>
      .cls-1 {
        fill: #c4ff00;
      }
    </style>
  </defs>
  <path class="cls-1" d="m30.32,4.17c-1.12-1.17-2.75-1.75-4.9-1.75H6.58c-2.15,0-3.79.58-4.9,1.75-1.12,1.17-1.68,2.9-1.68,5.2v12.69c0,2.38.56,4.23,1.68,5.54,1.12,1.31,2.75,1.97,4.9,1.97h18.84c2.15,0,3.79-.65,4.9-1.96,1.12-1.3,1.68-3.16,1.68-5.56v-12.69c0-2.3-.56-4.03-1.68-5.2Zm-4.64,19.53c-.1.74-.26,1.3-.48,1.69-.22.39-.57.55-1.04.48l-18.67-2.55c-.49-.07-.8-.31-.94-.72-.13-.41-.15-1-.04-1.76l1.76-12.89c.18-1.32.7-1.92,1.56-1.82l18.67,2.55s.02,0,.03,0c.47.06.76.29.86.67.1.38.12.86.04,1.43l-1.76,12.92Z"/>
</svg>